<?xml version="1.0" encoding="UTF-8"?>
<svg xmlns="http://www.w3.org/2000/svg" xmlns:xlink="http://www.w3.org/1999/xlink" width="78px" height="78px" viewBox="0 0 78 78" version="1.1">
<g id="surface1">
<rect x="0" y="0" width="78" height="78" style="fill:rgb(100%,100%,100%);fill-opacity:1;stroke:none;"/>
<path style=" stroke:none;fill-rule:evenodd;fill:rgb(0%,0%,0%);fill-opacity:1;" d="M 58.46875 73.523438 L 58.222656 73.171875 L 58 73.113281 L 57.617188 73.332031 L 55.609375 72.789062 L 56.203125 72.128906 L 55.570312 71.210938 L 56.308594 70.816406 C 56.269531 68.875 53.464844 64.875 52.011719 63.679688 L 51.675781 68.605469 C 49.363281 69.582031 46.96875 70.167969 44.683594 70.722656 L 44.882812 71.429688 L 43 71.191406 L 41.929688 72.464844 L 41.929688 72.808594 L 43.230469 73.363281 L 43.269531 73.457031 L 40.054688 73.34375 L 40.292969 70.683594 L 40.839844 70.367188 L 40.292969 70.167969 L 40.359375 68.089844 L 41.757812 68.730469 L 41.746094 68.339844 L 43.375 67.066406 L 43.964844 68.367188 C 44.808594 68.207031 45.726562 67.621094 46.367188 67.078125 C 46.523438 66.855469 46.960938 66.53125 46.867188 66.121094 C 45.429688 63.34375 43.171875 61.5 39.882812 60.292969 L 34.148438 58.113281 L 27.011719 54.707031 C 25.289062 53.644531 23.664062 52.4375 22.542969 50.8125 C 21.847656 49.789062 21.273438 48.488281 21.109375 47.328125 C 17.921875 46.984375 15.589844 45.070312 14.277344 42.046875 C 13.800781 40.382812 13.894531 38.707031 14.765625 37.003906 L 11.664062 35.855469 L 10.039062 34.996094 L 13.070312 29.703125 C 9.886719 28.613281 7.109375 26.835938 6.03125 23.523438 L 6.183594 19.898438 C 7.789062 21.296875 10.390625 23.601562 11.609375 24.386719 C 13.136719 25.378906 15.320312 26.996094 17.175781 26.796875 C 14.410156 23.6875 11.847656 19.714844 12.277344 14.261719 L 15.214844 12.0625 C 15.589844 13.171875 21.261719 26.402344 22.390625 26.003906 C 23.625 23.714844 24.640625 17.765625 24.277344 13.546875 L 27.949219 15.535156 C 30.207031 18.816406 28.285156 23.773438 27.136719 27.4375 C 28.390625 27.621094 29.816406 28.394531 30.550781 29.351562 C 31.019531 30.050781 31.375 30.890625 31.566406 31.714844 C 32.160156 31.734375 33.816406 30.296875 34.378906 29.894531 C 34.445312 29.425781 34.609375 28.230469 35.210938 28.335938 C 35.394531 26.929688 35.269531 25.496094 35.375 24.058594 L 38.800781 22.460938 C 41.480469 21.1875 44.386719 20.875 47.09375 19.753906 C 48.902344 16.671875 51.4375 14.414062 54.003906 12.175781 C 56.539062 9.984375 59.035156 7.792969 61.445312 5.402344 C 63.265625 5.679688 65.167969 6.175781 66.902344 5.765625 C 68.328125 5.421875 69.4375 4.4375 70.535156 3.441406 C 70.765625 3.640625 70.917969 3.9375 71.023438 4.246094 L 71.511719 3.652344 C 71.722656 3.910156 71.886719 4.273438 71.972656 4.695312 L 71.617188 5.289062 C 71.65625 5.574219 71.589844 6.128906 71.472656 6.472656 C 70.996094 7.441406 69.148438 7.71875 68.183594 7.792969 C 67.003906 8.617188 65.410156 8.503906 64.03125 8.714844 L 63.839844 8.78125 C 63.703125 8.980469 63.773438 9.191406 63.867188 9.410156 C 64.449219 9.9375 64.863281 10.730469 64.726562 11.585938 C 64.699219 11.9375 64.507812 12.195312 64.136719 12.332031 C 64.066406 12.378906 63.972656 12.332031 63.867188 12.347656 C 63.0625 11.460938 62.375 10.570312 61.101562 9.984375 L 61.035156 10.023438 C 59.597656 14.042969 58.605469 19.457031 54.519531 21.351562 C 52.109375 22.425781 51.046875 25.085938 48.53125 26.386719 C 46.167969 30.097656 45.210938 35.246094 44.980469 39.550781 C 44.980469 45.261719 47.160156 50.832031 51.277344 55.347656 L 58.558594 62.40625 L 58.738281 69.949219 C 59.007812 69.84375 59.960938 69.410156 60.308594 69.316406 C 60.085938 69.863281 59.847656 70.683594 59.722656 71.296875 C 59.667969 71.382812 59.503906 71.316406 59.371094 71.410156 L 61.0625 72.195312 L 62.71875 74.558594 Z M 58.46875 73.523438 "/>
<path style=" stroke:none;fill-rule:evenodd;fill:rgb(16.078431%,35.686275%,65.490196%);fill-opacity:1;" d="M 56.210938 71.660156 L 56.011719 71.351562 L 59.769531 69.851562 L 59.492188 70.816406 Z M 43.246094 70.761719 L 42.214844 68.675781 L 43.21875 67.824219 L 44.289062 70.90625 Z M 56.652344 70.703125 C 55.828125 67.335938 54.214844 65.460938 52.011719 63.203125 L 51.984375 61.988281 L 52.605469 60.808594 L 51.6875 61.832031 L 51.332031 68.101562 C 49.285156 69.382812 46.808594 69.707031 44.578125 70.300781 L 44.097656 68.835938 C 45.121094 68.492188 46.453125 67.726562 47.09375 66.953125 C 47.199219 66.992188 47.285156 67.238281 47.410156 67.171875 C 47.695312 66.894531 47.363281 66.4375 47.332031 66.054688 C 46.023438 63.316406 44.347656 61.851562 41.390625 60.464844 C 45.46875 59.625 48.941406 60.160156 51.304688 56.101562 L 58.039062 62.609375 L 58.429688 70.03125 Z M 56.652344 70.703125 "/>
<path style=" stroke:none;fill-rule:evenodd;fill:rgb(0%,0%,0%);fill-opacity:1;" d="M 40.398438 59.996094 C 35.078125 57.671875 28.179688 55.855469 24.007812 51.835938 C 23.394531 51.25 22.953125 50.609375 22.476562 49.789062 C 22.09375 49.128906 21.75 48.199219 21.75 47.394531 C 23.394531 46.984375 25.632812 46.4375 26.808594 45.003906 C 28.132812 43.914062 28.722656 41.816406 28.722656 40.152344 L 28.859375 40.179688 C 29.460938 40.890625 30.253906 40.890625 31.019531 40.382812 C 31.507812 40.066406 31.957031 39.53125 32.007812 38.859375 C 30.894531 37.703125 29.84375 36.402344 27.996094 35.921875 C 27.488281 34.515625 26.496094 33.378906 25.507812 32.355469 L 26.945312 28.070312 C 27.863281 27.914062 28.886719 28.613281 29.585938 29.160156 C 32.007812 33.214844 33.066406 39.339844 38.320312 40.660156 C 39.210938 40.765625 40.082031 40.957031 40.902344 40.699219 C 40.902344 40.613281 41 40.632812 41.039062 40.496094 L 41 40.382812 C 40.464844 40.132812 39.535156 40.546875 39.191406 39.78125 L 39.71875 37.292969 C 40.328125 37.273438 41.257812 37.617188 41.832031 36.976562 C 42.789062 35.722656 42.722656 33.65625 44.15625 33.121094 C 44.222656 33.054688 44.414062 32.851562 44.347656 32.671875 C 44.347656 32.507812 44.1875 32.375 44.089844 32.222656 C 45.179688 30.785156 45.179688 28.433594 46.894531 27.65625 C 46.300781 30.507812 45.179688 33.332031 44.664062 36.203125 C 44.539062 37.457031 44.453125 38.707031 44.414062 39.972656 C 44.453125 44.507812 46.070312 49.40625 48.808594 53.328125 L 50.671875 55.375 C 50.921875 55.789062 50.472656 56.417969 50.242188 56.8125 C 49.871094 57.375 49.285156 57.785156 48.652344 58.21875 C 45.9375 59.546875 43.132812 59.289062 40.464844 59.96875 Z M 40.398438 59.996094 "/>
<path style=" stroke:none;fill-rule:evenodd;fill:rgb(92.156863%,72.941176%,47.45098%);fill-opacity:1;" d="M 21.136719 46.898438 C 18.113281 46.304688 16.007812 44.371094 15.082031 41.40625 C 14.734375 40.019531 14.820312 38.546875 15.425781 37.207031 C 16.449219 37.359375 17.5 37.90625 18.582031 37.960938 C 21.003906 40.152344 24.933594 37.960938 28.023438 39.75 C 28.179688 41.207031 27.765625 42.9375 26.742188 44.144531 C 26.054688 44.9375 25.097656 45.808594 23.84375 46.191406 C 22.984375 46.46875 22.066406 46.765625 21.203125 46.851562 Z M 38.417969 40.152344 C 36.609375 39.683594 35.488281 38.441406 34.398438 37.207031 C 33.394531 35.855469 32.300781 34.078125 31.976562 32.289062 C 33.164062 31.742188 33.863281 30.949219 34.972656 30.277344 C 34.972656 29.800781 34.722656 29.1875 35.269531 28.777344 C 35.421875 28.683594 35.652344 28.710938 35.785156 28.84375 C 35.964844 29.1875 36.167969 29.621094 36.003906 29.984375 L 35.640625 30.632812 L 36.511719 32.164062 C 36.644531 31.617188 36.742188 30.730469 37.304688 30.144531 L 38.511719 30.660156 C 38.414062 31.101562 38.511719 31.648438 38.828125 32.03125 C 39.085938 32.441406 39.628906 32.605469 40.148438 32.605469 L 41.105469 31.964844 C 41.382812 31.878906 41.832031 31.894531 41.957031 32.222656 L 41.257812 34.011719 L 41.417969 34.011719 L 41.992188 32.832031 C 42.175781 33.121094 42.375 33.3125 42.75 33.464844 L 40.941406 36.996094 C 39.199219 37.023438 37.210938 36.085938 35.554688 35.570312 C 36.433594 36.203125 38.242188 36.671875 39.121094 37.070312 C 38.902344 37.75 38.511719 38.660156 38.445312 39.464844 C 38.546875 39.75 38.558594 39.886719 38.664062 40.152344 Z M 38.417969 40.152344 "/>
<path style=" stroke:none;fill-rule:evenodd;fill:rgb(92.156863%,72.941176%,47.45098%);fill-opacity:1;" d="M 29.976562 40.019531 C 28.570312 39.128906 27.03125 38.601562 25.460938 38.34375 C 23.863281 38.191406 22.496094 38.421875 20.113281 38.34375 C 18.878906 37.617188 18.046875 36.324219 17.089844 35.320312 C 17.28125 34.792969 18.726562 33.980469 19.355469 33.371094 C 18.589844 33.65625 16.800781 34.738281 16.285156 34.996094 C 16.21875 35.0625 16.035156 35.226562 16.105469 35.378906 L 18.015625 37.273438 C 15.617188 36.804688 13.273438 35.960938 10.996094 34.8125 L 13.671875 29.292969 C 10.546875 27.984375 8.125 26.070312 6.535156 23.398438 L 6.71875 21.21875 C 9.0625 23.09375 14.503906 28.25 17.777344 27.035156 C 15.863281 24.347656 12.257812 19.019531 12.996094 14.359375 L 14.839844 13.046875 C 16.457031 17.007812 19.109375 24.039062 22.410156 26.835938 C 24.1875 25.09375 25.242188 16.136719 25.078125 14.777344 L 27.605469 16.03125 C 29.996094 22.453125 24.964844 28.9375 24.199219 35.378906 L 23.117188 34.882812 C 23.59375 35.789062 23.960938 36.03125 25.03125 36.296875 C 26.140625 36.574219 27.375 36.5 28.503906 36.796875 C 29.632812 37.082031 30.675781 37.734375 31.277344 39.023438 C 31.347656 39.1875 31.375 39.273438 31.277344 39.398438 Z M 29.976562 40.019531 "/>
<path style=" stroke:none;fill-rule:evenodd;fill:rgb(16.078431%,35.686275%,65.490196%);fill-opacity:1;" d="M 32.628906 38.417969 C 32.5625 38.390625 32.476562 38.390625 32.378906 38.324219 L 32.601562 36.4375 C 32.695312 36.34375 32.859375 36.4375 32.972656 36.476562 C 33.269531 36.917969 33.136719 37.527344 32.953125 38.074219 C 32.886719 38.191406 32.859375 38.351562 32.65625 38.417969 Z M 28.800781 35.796875 C 28.773438 35.796875 28.707031 35.777344 28.621094 35.710938 C 28.621094 33.882812 27.5 31.96875 26.277344 30.765625 C 26.34375 30.601562 26.574219 30.582031 26.734375 30.582031 C 28.035156 31.722656 29.183594 33.769531 29.214844 35.644531 C 29.128906 35.683594 29.058594 35.863281 28.867188 35.796875 Z M 28.800781 35.796875 "/>
<path style=" stroke:none;fill-rule:evenodd;fill:rgb(92.156863%,72.941176%,47.45098%);fill-opacity:1;" d="M 25.824219 36.019531 L 24.933594 35.855469 C 24.714844 34.929688 25.097656 34.011719 25.308594 33.054688 C 26.054688 33.808594 26.90625 34.746094 27.222656 35.921875 Z M 25.824219 36.019531 "/>
<path style=" stroke:none;fill-rule:evenodd;fill:rgb(0%,0%,0%);fill-opacity:1;" d="M 40.710938 33.945312 C 40.675781 33.945312 40.644531 33.855469 40.585938 33.761719 C 40.585938 33.695312 40.742188 33.5625 40.835938 33.65625 L 40.875 33.855469 Z M 15.378906 30.097656 C 17.828125 30.777344 21.164062 31.273438 23.683594 31.492188 C 22.648438 31.894531 19.894531 31.484375 19.585938 31.445312 C 18.152344 31.246094 16.46875 30.796875 15.378906 30.097656 Z M 15.378906 30.097656 "/>
<path style=" stroke:none;fill-rule:evenodd;fill:rgb(92.156863%,72.941176%,47.45098%);fill-opacity:1;" d="M 54.023438 20.960938 C 54.367188 20.261719 55.027344 19.523438 54.75 18.730469 C 54.652344 18.414062 54.335938 18.222656 53.984375 18.117188 C 52.632812 17.746094 51.332031 18.894531 49.964844 18.796875 L 48.117188 19.277344 C 51.945312 13.917969 57.234375 10.3125 61.695312 5.84375 C 63.53125 6.417969 65.300781 6.542969 67.214844 6.128906 C 68.410156 5.707031 69.65625 4.703125 70.496094 3.792969 C 70.640625 3.957031 70.804688 4.261719 70.707031 4.53125 C 69.886719 5.488281 69.101562 6.511719 68.203125 7.113281 C 66.9375 7.945312 65.160156 8.136719 63.675781 8.207031 C 63.359375 8.433594 63.265625 8.980469 63.226562 9.390625 C 63.609375 10.089844 64.726562 10.894531 64.136719 11.851562 C 63.359375 10.894531 62.46875 10.121094 61.265625 9.476562 C 61.0625 9.230469 61.265625 8.933594 61.128906 8.65625 L 60.9375 8.617188 C 59.304688 12.671875 58.644531 19.027344 54.039062 20.960938 Z M 54.023438 20.960938 "/>
<path style=" stroke:none;fill-rule:evenodd;fill:rgb(89.803922%,65.490196%,45.098039%);fill-opacity:1;" d="M 69.800781 7.226562 C 70.246094 6.914062 70.839844 6.351562 71.402344 5.460938 C 71.382812 5.625 71.367188 6.121094 71.25 6.335938 C 70.988281 6.78125 70.558594 6.960938 70.097656 7.175781 Z M 68.707031 7.394531 L 71.445312 4.140625 C 71.585938 4.273438 71.644531 4.492188 71.664062 4.664062 C 70.996094 5.699219 70.039062 6.683594 69.226562 7.25 Z M 68.707031 7.394531 "/>
<path style=" stroke:none;fill-rule:evenodd;fill:rgb(100%,94.901961%,17.647059%);fill-opacity:1;" d="M 42.539062 31.875 C 42.214844 31.53125 41.632812 31.265625 41.125 31.398438 C 40.195312 30.507812 38.761719 30.730469 37.601562 29.933594 C 37.660156 29.734375 37.851562 29.667969 38.070312 29.550781 C 38.234375 28.679688 37.765625 27.113281 39.058594 26.796875 L 39.851562 26.519531 L 39.824219 26.453125 C 39.402344 26.355469 38.714844 26.585938 38.28125 26.957031 C 37.601562 27.570312 37.96875 28.613281 37.8125 29.351562 C 37.640625 29.445312 37.429688 29.648438 37.335938 29.734375 L 36.578125 29.417969 C 36.445312 29.023438 36.195312 28.527344 35.804688 28.230469 L 35.851562 24.539062 C 38.828125 22.75 42.242188 21.628906 45.429688 20.988281 C 45.589844 21.027344 45.753906 21.027344 45.9375 21.121094 C 46.167969 21.4375 45.839844 21.898438 45.660156 22.269531 L 45.210938 22.855469 C 44.222656 24.195312 42.949219 25.199219 41.859375 26.289062 C 41.859375 26.421875 41.925781 26.585938 42.082031 26.632812 L 42.214844 26.632812 C 43.925781 25.113281 46.097656 23.648438 46.480469 21.09375 C 46.480469 20.988281 46.367188 20.835938 46.367188 20.710938 L 48.757812 19.660156 C 49.257812 19.554688 49.800781 19.238281 50.347656 19.503906 C 50.347656 20.804688 48.96875 21.628906 48.328125 22.71875 C 46.960938 24.195312 45.660156 25.8125 43.976562 27.09375 L 43.996094 27.160156 C 44.15625 27.09375 44.1875 26.957031 44.347656 26.863281 L 43.910156 27.378906 L 43.925781 27.570312 C 44.949219 27.246094 45.890625 26.289062 46.617188 25.464844 C 48.082031 23.925781 49.390625 22.421875 50.671875 20.671875 C 50.988281 20.164062 50.921875 19.714844 50.855469 19.277344 C 51.839844 18.863281 52.863281 18.386719 53.917969 18.597656 C 54.136719 18.703125 54.269531 18.980469 54.203125 19.238281 C 52.671875 22.855469 49.800781 24.921875 46.777344 27.09375 L 45.410156 27.914062 L 43.542969 31.875 C 43.265625 31.808594 42.980469 31.808594 42.65625 31.808594 Z M 36.453125 31.492188 L 36.015625 30.738281 C 36.175781 30.554688 36.445312 30.230469 36.578125 29.773438 L 37.066406 29.972656 C 36.75 30.441406 36.570312 30.9375 36.453125 31.492188 Z M 36.453125 31.492188 "/>
<path style=" stroke:none;fill-rule:evenodd;fill:rgb(92.156863%,72.941176%,47.45098%);fill-opacity:1;" d="M 39.847656 26.53125 C 40.265625 26.457031 40.992188 26.359375 41.671875 26.503906 C 41.757812 26.511719 41.847656 26.53125 41.949219 26.5625 C 41.984375 26.605469 42.03125 26.636719 42.085938 26.648438 L 42.21875 26.648438 L 42.226562 26.636719 C 42.753906 26.800781 43.425781 27.039062 44.027344 27.257812 L 43.914062 27.394531 L 43.929688 27.585938 C 44.089844 27.53125 44.242188 27.46875 44.390625 27.394531 C 45.042969 27.640625 45.519531 27.84375 45.519531 27.84375 L 45.519531 27.871094 L 45.414062 27.929688 L 43.566406 31.917969 C 43.339844 31.824219 42.917969 31.824219 42.660156 31.824219 L 42.542969 31.890625 C 42.21875 31.546875 41.636719 31.277344 41.128906 31.410156 C 40.476562 30.789062 39.570312 30.714844 38.699219 30.445312 C 38.316406 30.332031 37.941406 30.175781 37.609375 29.949219 C 37.664062 29.746094 37.855469 29.679688 38.078125 29.566406 C 38.238281 28.695312 37.769531 27.125 39.0625 26.808594 L 39.855469 26.53125 Z M 38.773438 26.667969 C 38.582031 26.71875 38.40625 26.828125 38.277344 26.980469 L 38.285156 26.972656 C 38.433594 26.847656 38.597656 26.742188 38.773438 26.667969 Z M 38.773438 26.667969 "/>
<path style=" stroke:none;fill-rule:evenodd;fill:rgb(0%,0%,0%);fill-opacity:1;" d="M 39.457031 29.4375 C 39.769531 29.144531 40.230469 28.859375 40.484375 28.84375 C 40.871094 28.796875 40.996094 28.984375 41.117188 29.078125 C 41.15625 29.136719 41.25 29.238281 41.144531 29.332031 C 40.898438 29.398438 40.964844 29.070312 40.5625 29.011719 C 40.003906 29.136719 39.804688 29.304688 39.457031 29.4375 Z M 39.457031 29.4375 "/>
</g>
</svg>
